# xmcd
#
# Track frame offsets: 
#        150
#        24995
#        44040
#        64590
#        86647
#        106287
#        127440
#        150845
#        173765
#        196240
#
# Disc length: 2849 seconds
#
# Revision: 0
# Processed by: cddbd v1.5.2PL0 Copyright (c) Steve Scherf et al.
# Submitted via: ExactAudioCopy v1.0b3
#
DISCID=7f0b1f0a
DTITLE=Ha Vy - Sao Anh No Danh Quen
DYEAR=1999
DGENRE=
TTITLE0=Ha thuong
TTITLE1=Cay dang tinh doi
TTITLE2=So phan
TTITLE3=Tha trang tha den
TTITLE4=O tro
TTITLE5=Co le
TTITLE6=Sao anh no danh quen
TTITLE7=Anh nho khong anh
TTITLE8=Mai anh di xa roi
TTITLE9=Dung nhac nua
EXTD=
EXTT0=
EXTT1=
EXTT2=
EXTT3=
EXTT4=
EXTT5=
EXTT6=
EXTT7=
EXTT8=
EXTT9=
PLAYORDER=
